<svg width="529" height="336" viewBox="0 0 529 336" fill="none" xmlns="http://www.w3.org/2000/svg">
<path d="M335.886 238.367C321.08 258.936 300.142 274.29 276.074 282.228C252.005 290.166 226.042 290.28 201.904 282.555C177.767 274.83 156.694 259.662 141.707 239.225C126.72 218.787 118.588 194.13 118.476 168.786C118.364 143.443 126.278 118.715 141.084 98.1456C155.89 77.5765 176.827 62.2227 200.896 54.2846C224.964 46.3466 250.928 46.2319 275.065 53.957C299.203 61.682 320.275 76.8502 335.262 97.2877" stroke="black" stroke-width="13.535"/>
<path d="M316.74 144.612L325.095 161.606H314.886L307.41 146.56H300.908V161.606H291.389V116.561H307.598C312.625 116.561 316.645 117.869 319.661 120.487C322.698 123.084 324.216 126.78 324.216 131.576C324.216 134.696 323.556 137.356 322.237 139.555C320.938 141.733 319.106 143.418 316.74 144.612ZM307.222 124.948H300.908V138.204H307.222C309.546 138.204 311.368 137.639 312.687 136.508C314.028 135.356 314.698 133.712 314.698 131.576C314.698 129.44 314.028 127.806 312.687 126.675C311.368 125.524 309.546 124.948 307.222 124.948ZM348.845 162.517C345.724 162.517 342.772 161.942 339.986 160.79C337.201 159.638 334.793 158.046 332.761 156.015C330.73 153.984 329.117 151.502 327.924 148.57C326.73 145.638 326.133 142.476 326.133 139.083C326.133 136.382 326.521 133.806 327.296 131.356C328.07 128.906 329.159 126.738 330.562 124.854C331.966 122.969 333.599 121.335 335.463 119.953C337.348 118.571 339.431 117.513 341.714 116.78C344.018 116.047 346.394 115.681 348.845 115.681C354.813 115.681 359.651 117.22 363.357 120.299C367.085 123.377 369.389 127.628 370.268 133.052H360.562C359.85 130.393 358.467 128.309 356.415 126.801C354.384 125.293 351.86 124.539 348.845 124.539C345.159 124.539 342.039 125.911 339.484 128.654C336.95 131.377 335.683 134.853 335.683 139.083C335.683 143.314 336.95 146.801 339.484 149.544C342.039 152.266 345.159 153.628 348.845 153.628C351.839 153.628 354.363 152.884 356.415 151.397C358.467 149.91 359.85 147.806 360.562 145.083H370.488C369.546 150.444 367.106 154.696 363.169 157.837C359.253 160.957 354.478 162.517 348.845 162.517ZM313.127 221.517C310.007 221.517 307.054 220.942 304.269 219.79C301.483 218.638 299.075 217.046 297.044 215.015C295.012 212.984 293.4 210.502 292.206 207.57C291.013 204.638 290.416 201.476 290.416 198.083C290.416 195.382 290.803 192.806 291.578 190.356C292.353 187.906 293.442 185.738 294.845 183.854C296.248 181.969 297.881 180.335 299.745 178.953C301.63 177.571 303.714 176.513 305.996 175.78C308.3 175.047 310.677 174.681 313.127 174.681C319.096 174.681 323.933 176.22 327.64 179.299C331.367 182.377 333.671 186.628 334.551 192.052H324.844C324.132 189.393 322.75 187.309 320.698 185.801C318.666 184.293 316.143 183.539 313.127 183.539C309.441 183.539 306.321 184.911 303.766 187.654C301.232 190.377 299.965 193.853 299.965 198.083C299.965 202.314 301.232 205.801 303.766 208.544C306.321 211.266 309.441 212.628 313.127 212.628C316.122 212.628 318.645 211.884 320.698 210.397C322.75 208.91 324.132 206.806 324.844 204.083H334.771C333.828 209.444 331.388 213.696 327.451 216.837C323.535 219.957 318.76 221.517 313.127 221.517ZM375.797 220.606H365.776L362.603 211.465H345.641L342.468 220.606H332.447L348.279 175.561H359.965L375.797 220.606ZM352.834 190.293L348.593 202.733H359.651L355.41 190.293C354.593 187.99 354.164 186.775 354.122 186.649C354.08 186.754 353.651 187.969 352.834 190.293ZM386.793 220.606H377.274V175.561H394.394C399.106 175.561 402.897 176.817 405.766 179.33C408.656 181.822 410.101 185.351 410.101 189.916C410.101 194.481 408.656 198.021 405.766 200.534C402.897 203.026 399.106 204.272 394.394 204.272H386.793V220.606ZM386.793 183.948V195.916H394.017C396.112 195.916 397.724 195.403 398.855 194.377C400.007 193.351 400.583 191.864 400.583 189.916C400.583 187.969 400.017 186.492 398.886 185.487C397.756 184.461 396.133 183.948 394.017 183.948H386.793ZM422.636 220.606H413.118V175.561H422.636V220.606ZM460.615 175.561V184.325H448.333V220.606H438.815V184.325H426.532V175.561H460.615ZM496.301 220.606H486.281L483.108 211.465H466.145L462.972 220.606H452.952L468.784 175.561H480.469L496.301 220.606ZM473.338 190.293L469.098 202.733H480.155L475.914 190.293C475.098 187.99 474.668 186.775 474.626 186.649C474.585 186.754 474.155 187.969 473.338 190.293ZM526.082 220.606H497.779V175.561H507.297V211.842H526.082V220.606Z" fill="black"/>
<rect x="0.500488" y="35.6072" width="266.004" height="266.004" rx="133.002" fill="black"/>
<path d="M235.455 228.077C197.26 281.919 136.055 246.024 133.754 205.988V127.756V126.375V119.933L236.836 221.634L235.455 228.077Z" fill="#D9D9D9"/>
<mask id="mask0_129_1415" style="mask-type:alpha" maskUnits="userSpaceOnUse" x="16" y="51" width="236" height="178">
<path d="M235.51 228.172L134.488 126.692C134.348 126.55 134.156 126.471 133.957 126.471C133.759 126.471 133.568 126.55 133.428 126.691L31.9457 228.172C-3.48873 177.09 15.8392 56.9811 133.647 51.0005H133.808C251.616 56.9811 270.944 177.09 235.51 228.172Z" fill="white"/>
</mask>
<g mask="url(#mask0_129_1415)">
<g filter="url(#filter0_f_129_1415)">
<path d="M366.398 124.305C366.398 224.918 421.876 306.481 321.263 306.481C220.65 306.481 139.087 224.918 139.087 124.305C139.087 23.6919 220.65 -57.8711 321.263 -57.8711C421.876 -57.8711 366.398 23.6919 366.398 124.305Z" fill="#A8FF76"/>
</g>
<g filter="url(#filter1_f_129_1415)">
<circle cx="27.4302" cy="185.732" r="163.431" fill="#7AF8CB"/>
</g>
<g filter="url(#filter2_f_129_1415)">
<path d="M23.5909 188.595C23.5909 261.064 132.672 319.812 267.23 319.812C401.788 319.812 241.253 261.064 241.253 188.595C241.253 116.125 401.788 57.377 267.23 57.377C132.672 57.377 23.5909 116.125 23.5909 188.595Z" fill="#FFF2D0"/>
</g>
<g filter="url(#filter3_f_129_1415)">
<circle cx="27.4302" cy="94.4265" r="163.431" fill="#7AF8CB"/>
</g>
<g filter="url(#filter4_f_129_1415)">
<path d="M23.5909 97.289C23.5909 169.759 132.672 228.507 267.23 228.507C401.788 228.507 241.253 169.759 241.253 97.289C241.253 24.8195 401.788 -33.9287 267.23 -33.9287C132.672 -33.9287 23.5909 24.8195 23.5909 97.289Z" fill="#FFF2D0"/>
</g>
<g filter="url(#filter5_f_129_1415)">
<path d="M385.967 40.1761C385.967 140.789 441.445 222.352 340.832 222.352C240.219 222.352 158.656 140.789 158.656 40.1761C158.656 -60.437 240.219 -142 340.832 -142C441.445 -142 385.967 -60.437 385.967 40.1761Z" fill="#A8FF76"/>
</g>
</g>
<defs>
<filter id="filter0_f_129_1415" x="-65.3608" y="-262.319" width="651.465" height="773.248" filterUnits="userSpaceOnUse" color-interpolation-filters="sRGB">
<feFlood flood-opacity="0" result="BackgroundImageFix"/>
<feBlend mode="normal" in="SourceGraphic" in2="BackgroundImageFix" result="shape"/>
<feGaussianBlur stdDeviation="102.224" result="effect1_foregroundBlur_129_1415"/>
</filter>
<filter id="filter1_f_129_1415" x="-274.497" y="-116.196" width="603.855" height="603.855" filterUnits="userSpaceOnUse" color-interpolation-filters="sRGB">
<feFlood flood-opacity="0" result="BackgroundImageFix"/>
<feBlend mode="normal" in="SourceGraphic" in2="BackgroundImageFix" result="shape"/>
<feGaussianBlur stdDeviation="69.2484" result="effect1_foregroundBlur_129_1415"/>
</filter>
<filter id="filter2_f_129_1415" x="-81.9306" y="-48.1444" width="508.421" height="473.478" filterUnits="userSpaceOnUse" color-interpolation-filters="sRGB">
<feFlood flood-opacity="0" result="BackgroundImageFix"/>
<feBlend mode="normal" in="SourceGraphic" in2="BackgroundImageFix" result="shape"/>
<feGaussianBlur stdDeviation="52.7607" result="effect1_foregroundBlur_129_1415"/>
</filter>
<filter id="filter3_f_129_1415" x="-274.497" y="-207.501" width="603.855" height="603.855" filterUnits="userSpaceOnUse" color-interpolation-filters="sRGB">
<feFlood flood-opacity="0" result="BackgroundImageFix"/>
<feBlend mode="normal" in="SourceGraphic" in2="BackgroundImageFix" result="shape"/>
<feGaussianBlur stdDeviation="69.2484" result="effect1_foregroundBlur_129_1415"/>
</filter>
<filter id="filter4_f_129_1415" x="-81.9306" y="-139.45" width="508.421" height="473.478" filterUnits="userSpaceOnUse" color-interpolation-filters="sRGB">
<feFlood flood-opacity="0" result="BackgroundImageFix"/>
<feBlend mode="normal" in="SourceGraphic" in2="BackgroundImageFix" result="shape"/>
<feGaussianBlur stdDeviation="52.7607" result="effect1_foregroundBlur_129_1415"/>
</filter>
<filter id="filter5_f_129_1415" x="-45.7914" y="-346.448" width="651.465" height="773.248" filterUnits="userSpaceOnUse" color-interpolation-filters="sRGB">
<feFlood flood-opacity="0" result="BackgroundImageFix"/>
<feBlend mode="normal" in="SourceGraphic" in2="BackgroundImageFix" result="shape"/>
<feGaussianBlur stdDeviation="102.224" result="effect1_foregroundBlur_129_1415"/>
</filter>
</defs>
</svg>
